<?xml version="1.0" encoding="utf-8"?>
<!-- Generator: Adobe Illustrator 25.0.0, SVG Export Plug-In . SVG Version: 6.00 Build 0)  -->
<svg version="1.1" id="Camada_1" xmlns="http://www.w3.org/2000/svg" xmlns:xlink="http://www.w3.org/1999/xlink" x="0px" y="0px"
	 viewBox="0 0 3000 3000" style="enable-background:new 0 0 3000 3000;" xml:space="preserve">
<style type="text/css">
	.st0{fill:#000066;}
	.st1{fill:#FFFFFF;}
	.st2{stroke:#FFFFFF;stroke-width:20;stroke-miterlimit:10;}
	.st3{font-family:'Unispace-Bold';}
	.st4{font-size:50.6037px;}
</style>
<g>
	<path class="st0" d="M2438.92,1217.68l-173.24-173.24c-45.89-45.89-120.28-45.89-166.17,0l-336.79,336.79l-131.78-131.78
		c-45.89-45.89-120.28-45.89-166.17,0l-123.49,123.49l-328.51-328.51c-45.89-45.89-120.28-45.89-166.17,0l-173.24,173.24
		c-45.89,45.89-45.89,120.28,0,166.17l505.58,505.58c45.89,45.89,120.28,45.89,166.17,0l91.89-91.89l44.17,44.17
		c45.89,45.89,120.28,45.89,166.17,0l36.06-36.06l83.77,83.77c45.89,45.89,120.28,45.89,166.17,0l505.58-505.58
		C2484.81,1337.96,2484.81,1263.57,2438.92,1217.68z"/>
	<g>
		<rect x="1698.43" y="1412.36" class="st1" width="486.86" height="312"/>
		<g>
			<path class="st2" d="M1845.43,1422.73h-163.86c-25.56,0-46.29,20.72-46.29,46.29v1.24c-18.21-2.65-42.51-4.67-74.29-4.67
				c-37.8,0-65.02,3.72-84,8.11v-4.68c0-25.56-20.72-46.29-46.29-46.29h-504c-25.56,0-46.29,20.72-46.29,46.29v198.86
				c0,25.56,20.72,46.29,46.29,46.29h504c25.56,0,46.29-20.72,46.29-46.29v-134.65c18.88-5,45.03-9.35,78.86-9.35
				c32.01,0,58.82,3.9,79.43,8.55v135.45c0,25.56,20.72,46.29,46.29,46.29h87.37L1845.43,1422.73z"/>
			<polygon class="st2" points="1891.23,1714.16 1959.12,1714.16 2035.61,1422.73 1967.72,1422.73 			"/>
			<path class="st2" d="M2185.57,1422.73h-114.9l-76.49,291.43h191.39c25.56,0,46.29-20.72,46.29-46.29v-198.86
				C2231.86,1443.46,2211.13,1422.73,2185.57,1422.73z"/>
		</g>
		<text transform="matrix(1.0524 0 0 1 919.2409 1507.1707)"><tspan x="0" y="0" class="st1 st3 st4">0101010110100111</tspan><tspan x="0" y="52" class="st1 st3 st4">0101100110110101</tspan><tspan x="0" y="104" class="st1 st3 st4">0101010110100111</tspan><tspan x="0" y="156" class="st1 st3 st4">0101100110110101</tspan></text>
	</g>
</g>
</svg>
